<?xml version="1.0" encoding="utf-8"?>
<svg viewBox="0 0 416 271" xmlns="http://www.w3.org/2000/svg">
  <g stroke-width="2.00" fill="none" stroke-linecap="butt">
    <path stroke="#80b99b" vector-effect="non-scaling-stroke" d=" M 184.54 19.87 A 24.51 17.35 0.0 0 0 160.03 2.52 A 24.51 17.35 0.0 0 0 135.52 19.87 A 24.51 17.35 0.0 0 0 160.03 37.22 A 24.51 17.35 0.0 0 0 184.54 19.87"/>
    <path stroke="#80d2a8" vector-effect="non-scaling-stroke" d=" M 241.69 28.31 C 236.94 34.62 241.54 42.72 247.81 45.69 C 257.20 50.14 276.49 49.67 279.57 36.84 C 281.88 27.22 271.91 20.98 263.79 20.50"/>
    <path stroke="#8bd3b0" vector-effect="non-scaling-stroke" d=" M 263.79 20.50 Q 250.40 18.03 241.69 28.31"/>
    <path stroke="#0ba659" vector-effect="non-scaling-stroke" d=" M 263.79 20.50 L 262.82 22.11 A 1.30 0.82 2.0 0 1 262.00 22.59 Q 251.58 24.51 241.69 28.31"/>
    <path stroke="#a3cbb8" vector-effect="non-scaling-stroke" d=" M 165.25 49.71 Q 159.19 51.85 153.56 55.18"/>
    <path stroke="#80b99b" vector-effect="non-scaling-stroke" d=" M 153.56 55.18 C 136.87 61.02 93.61 81.02 93.01 101.75 Q 92.99 102.25 93.41 101.97 C 121.16 82.86 154.58 72.03 188.49 65.57 A 2.17 2.16 65.7 0 1 190.59 66.37 C 213.47 95.87 222.01 137.11 191.62 165.11 C 185.93 170.36 180.06 175.00 173.31 178.56 Q 171.51 179.52 173.50 179.25 C 178.22 178.62 182.06 178.89 186.81 176.81 C 225.57 159.90 262.74 125.65 250.75 78.71"/>
    <path stroke="#93c4ab" vector-effect="non-scaling-stroke" d=" M 250.75 78.71 L 249.04 72.75"/>
    <path stroke="#80b99b" vector-effect="non-scaling-stroke" d=" M 249.04 72.75 C 242.50 53.38 227.12 36.19 211.45 22.79 A 1.06 1.06 -48.5 0 0 209.96 22.90 C 206.44 26.95 203.09 30.39 198.35 33.21 Q 182.43 42.68 165.25 49.71"/>
    <path stroke="#147d46" vector-effect="non-scaling-stroke" d=" M 249.04 72.75 Q 246.52 73.27 244.05 73.94 Q 240.37 74.94 241.57 78.53 A 1.13 0.81 5.6 0 0 242.23 79.11 Q 243.47 79.54 243.91 81.46 Q 244.35 83.30 246.14 83.26 L 249.19 83.21 A 0.68 0.67 6.8 0 0 249.83 82.71 C 250.15 81.57 249.45 78.73 250.75 78.71"/>
    <path stroke="#238553" vector-effect="non-scaling-stroke" d=" M 153.56 55.18 Q 166.59 51.49 179.30 46.83 C 180.02 46.57 181.66 44.87 178.97 45.67 Q 172.59 47.56 166.42 50.08 A 0.85 0.75 -35.2 0 1 165.61 49.99 L 165.25 49.71"/>
    <path stroke="#d9e99c" vector-effect="non-scaling-stroke" d=" M 331.75 52.04 C 350.14 59.80 372.73 71.05 364.81 95.90 C 356.03 123.48 313.06 145.54 288.95 155.22 C 234.80 176.97 173.12 188.20 115.18 182.32 C 98.37 180.62 79.81 176.56 65.08 168.00 C 56.14 162.81 46.10 151.04 47.50 140.00 C 50.36 117.53 73.95 99.22 92.73 89.05 C 93.09 88.86 94.30 87.36 92.61 88.29 Q 72.97 99.08 56.59 114.34 C 41.88 128.04 28.69 150.20 46.14 168.37 C 57.22 179.90 73.12 185.81 88.41 189.19 C 111.70 194.35 134.68 195.53 159.50 194.24 Q 228.74 190.65 293.25 165.50 C 322.77 153.99 369.62 131.20 380.50 100.00 C 391.16 69.42 353.35 53.03 330.50 49.29"/>
    <path stroke="#b0dda3" vector-effect="non-scaling-stroke" d=" M 330.50 49.29 Q 329.13 48.67 325.44 46.56 C 317.83 42.23 312.17 46.01 303.99 45.08 Q 293.03 43.85 279.43 43.39 A 1.90 1.88 -70.2 0 0 277.84 44.15 Q 277.18 45.05 279.26 44.96 Q 292.16 44.45 304.94 46.24 Q 305.43 46.31 305.04 46.62 Q 301.08 49.77 300.06 51.56 C 296.84 57.21 300.85 63.62 306.26 65.98 C 316.19 70.33 336.22 67.15 331.75 52.04"/>
    <path stroke="#8ac640" vector-effect="non-scaling-stroke" d=" M 330.50 49.29 Q 330.43 50.94 331.75 52.04"/>
    <path stroke="#80d2a8" vector-effect="non-scaling-stroke" d=" M 251.35 59.30 C 277.04 106.73 247.02 153.12 205.04 174.69 Q 203.17 175.65 205.23 175.25 Q 219.67 172.47 233.95 169.04 Q 244.85 166.43 256.81 158.81 C 287.89 139.02 306.98 108.49 298.10 70.77 Q 295.22 58.55 289.83 47.60 A 0.91 0.91 -27.6 0 0 288.57 47.21 C 276.85 53.79 264.96 56.31 251.82 58.36 A 0.64 0.64 -18.5 0 0 251.35 59.30"/>
    <path stroke="#b0dda3" vector-effect="non-scaling-stroke" d=" M 306.97 77.01 C 311.65 110.86 294.93 140.27 267.49 159.01 Q 266.37 159.77 267.65 159.32 Q 281.99 154.24 296.24 147.97 Q 299.66 146.46 301.06 145.31 C 322.16 128.07 334.98 101.79 334.25 74.41 A 0.98 0.97 -7.6 0 0 333.04 73.49 Q 320.69 76.55 307.41 76.50 A 0.45 0.44 86.1 0 0 306.97 77.01"/>
    <path stroke="#d9e99b" vector-effect="non-scaling-stroke" d=" M 191.85 95.54 C 191.48 96.23 172.74 102.01 167.00 104.00 Q 164.68 104.80 162.99 104.59 A 1.38 1.13 26.9 0 0 162.08 104.79 C 158.03 107.57 155.66 110.96 152.64 114.46 C 137.09 132.52 121.98 154.39 116.30 177.70 A 1.22 1.22 -81.1 0 0 117.39 179.20 Q 133.42 180.45 148.92 180.50 C 152.43 180.51 155.13 180.63 158.31 179.06 C 171.51 172.57 185.62 162.40 193.21 149.99 C 208.30 125.32 198.09 96.51 181.90 74.97 A 1.11 1.10 -24.9 0 0 180.77 74.56 C 147.53 82.06 80.75 103.93 78.75 146.75 Q 78.12 160.26 81.77 170.85 A 1.10 1.03 1.9 0 0 82.41 171.49 Q 91.93 175.10 101.77 176.71 A 0.85 0.83 -73.7 0 0 102.68 176.20 C 114.03 149.01 134.97 128.08 156.06 108.31 Q 159.06 105.50 161.81 103.99 A 1.19 1.05 37.0 0 1 162.71 103.92 C 163.75 104.25 164.09 104.39 165.22 104.00 Q 178.29 99.45 191.46 95.21 Q 192.16 94.99 191.85 95.54"/>
    <path stroke="#81b89b" vector-effect="non-scaling-stroke" d=" M 200.22 237.66 C 203.33 235.50 205.26 232.39 204.61 228.49 C 203.05 219.08 189.18 220.15 182.50 221.75 A 0.66 0.65 83.3 0 0 182.00 222.39 L 182.00 255.75 A 0.78 0.77 2.4 0 0 182.71 256.52 C 188.86 257.05 202.75 258.87 205.44 251.69 Q 208.98 242.21 200.28 238.15 Q 199.83 237.94 200.22 237.66"/>
    <path stroke="#bfe2d0" vector-effect="non-scaling-stroke" d=" M 221.25 246.29 L 222.25 246.21"/>
    <path stroke="#81b89b" vector-effect="non-scaling-stroke" d=" M 222.25 246.21 C 228.69 246.30 234.51 247.14 237.01 239.58 C 239.24 232.86 238.27 222.91 229.75 221.25 Q 222.81 219.90 214.80 221.70 A 0.63 0.62 -6.4 0 0 214.31 222.31 L 214.25 255.84 A 0.91 0.91 0.0 0 0 215.16 256.75 L 220.82 256.75 A 0.52 0.50 90.0 0 0 221.32 256.23 L 221.25 246.29"/>
    <path stroke="#409a6c" vector-effect="non-scaling-stroke" d=" M 222.25 246.21 Q 220.49 244.48 218.41 245.73 Q 218.01 245.96 217.49 246.00 Q 216.02 246.10 215.57 247.42 Q 215.56 247.46 215.59 247.45 Q 220.63 245.80 221.25 246.29"/>
    <path stroke="#81b89b" vector-effect="non-scaling-stroke" d=" M 161.88 237.48 L 156.18 221.79 A 0.80 0.75 79.5 0 0 155.46 221.26 L 149.23 221.30 A 0.55 0.54 78.8 0 0 148.73 222.06 Q 152.73 231.86 156.59 241.29 C 158.73 246.53 158.77 250.50 158.58 255.93 A 0.59 0.48 -88.4 0 0 159.05 256.54 L 164.77 256.63 A 0.88 0.79 88.3 0 0 165.57 255.68 C 165.19 250.47 165.27 247.05 167.33 242.04 Q 171.45 232.05 175.32 221.96 A 0.39 0.35 -78.2 0 0 175.01 221.43 L 168.67 221.37 A 0.82 0.62 -77.1 0 0 168.03 221.91 L 162.26 237.48 Q 162.07 237.99 161.88 237.48"/>
    <path stroke="#81b89b" vector-effect="non-scaling-stroke" d=" M 252.57 236.18 L 252.70 225.77 A 0.53 0.52 0.0 0 1 253.23 225.25 C 255.54 225.25 264.45 225.87 265.95 225.21 Q 267.07 224.71 266.48 222.01 A 0.98 0.96 83.6 0 0 265.54 221.24 L 246.18 221.42 A 0.52 0.50 89.4 0 0 245.69 221.94 L 245.81 256.18 A 0.54 0.48 89.5 0 0 246.30 256.72 L 252.06 256.62 A 0.56 0.53 89.5 0 0 252.58 256.06 L 252.74 241.57 A 0.57 0.56 -90.0 0 1 253.30 241.00 L 263.91 241.00 A 0.72 0.71 -79.0 0 0 264.57 240.55 Q 265.27 238.79 264.31 237.39 A 1.07 0.81 -12.3 0 0 263.51 237.02 L 253.05 236.73 A 0.54 0.49 -88.9 0 1 252.57 236.18"/>
    <path stroke="#147d46" vector-effect="non-scaling-stroke" d=" M 213.31 31.06 C 209.53 35.57 216.55 39.57 219.91 34.85 A 0.91 0.88 51.0 0 0 219.99 33.97 Q 218.90 31.67 216.75 30.25 Q 214.98 29.08 213.31 31.06"/>
    <path stroke="#147d46" vector-effect="non-scaling-stroke" d=" M 206.34 38.49 C 205.81 37.40 203.91 32.56 203.16 32.13 C 200.90 30.83 205.23 39.28 205.31 39.43 A 1.15 1.14 74.7 0 0 206.37 40.04 Q 209.73 39.89 211.69 38.44 C 212.28 38.01 212.42 37.54 211.61 37.90 Q 209.42 38.88 207.07 38.94 A 0.81 0.79 75.8 0 1 206.34 38.49"/>
    <path stroke="#147d46" vector-effect="non-scaling-stroke" d=" M 240.6362 79.9551 A 4.01 3.60 -2.5 0 0 236.4730 76.5334 A 4.01 3.60 -2.5 0 0 232.6238 80.3049 A 4.01 3.60 -2.5 0 0 236.7870 83.7266 A 4.01 3.60 -2.5 0 0 240.6362 79.9551"/>
    <path stroke="#147d46" vector-effect="non-scaling-stroke" d=" M 227.29 85.01 C 226.69 84.08 223.95 77.70 222.87 78.42 A 0.68 0.59 62.6 0 0 222.68 79.21 L 225.98 86.80 A 0.70 0.69 -19.6 0 0 226.80 87.18 L 232.52 85.64 A 1.56 1.14 2.9 0 0 233.31 85.12 C 234.58 83.23 228.22 85.29 228.04 85.33 A 0.72 0.69 67.2 0 1 227.29 85.01"/>
    <path stroke="#3f9b6c" vector-effect="non-scaling-stroke" d=" M 221.0351 138.6717 A 0.27 0.27 0.0 0 0 220.6928 138.5025 L 208.6443 142.5807 A 0.27 0.27 0.0 0 0 208.4751 142.9231 L 208.5649 143.1883 A 0.27 0.27 0.0 0 0 208.9072 143.3575 L 220.9557 139.2793 A 0.27 0.27 0.0 0 0 221.1249 138.9369 L 221.0351 138.6717"/>
    <path stroke="#157c46" vector-effect="non-scaling-stroke" d=" M 217.9013 35.5665 A 2.65 2.25 50.9 0 0 217.9761 32.0910 A 2.65 2.25 50.9 0 0 214.5587 31.4535 A 2.65 2.25 50.9 0 0 214.4839 34.9290 A 2.65 2.25 50.9 0 0 217.9013 35.5665"/>
    <path stroke="#00a551" vector-effect="non-scaling-stroke" d=" M 263.60 66.79 A 0.97 0.97 75.6 0 1 262.86 68.05 C 255.30 69.42 259.82 77.97 266.70 73.88 A 1.41 1.41 65.5 0 0 267.32 72.21 Q 266.43 69.63 265.38 66.61 C 265.01 65.54 262.22 62.70 263.60 66.79"/>
    <path stroke="#18b064" vector-effect="non-scaling-stroke" d=" M 276.22 70.01 Q 276.52 68.49 275.30 69.44 C 269.39 73.99 269.48 64.95 272.35 66.00 A 1.64 1.16 75.7 0 1 273.07 66.61 Q 274.60 68.99 275.39 65.99 A 0.61 0.60 -71.8 0 0 275.04 65.29 Q 272.06 64.01 269.36 65.66 A 1.02 0.97 77.4 0 0 268.89 66.44 Q 268.25 73.59 274.93 71.16 Q 276.08 70.74 276.22 70.01"/>
    <path stroke="#00a551" vector-effect="non-scaling-stroke" d=" M 282.48 114.80 C 275.21 115.96 281.75 126.04 287.67 119.87 A 0.83 0.81 57.3 0 0 287.84 119.03 C 287.79 118.89 283.14 106.22 283.33 113.77 A 1.01 1.01 -5.5 0 1 282.48 114.80"/>
    <path stroke="#18b064" vector-effect="non-scaling-stroke" d=" M 278.5162 123.0054 A 4.04 3.47 24.5 0 0 276.2790 118.1724 A 4.04 3.47 24.5 0 0 271.1638 119.6546 A 4.04 3.47 24.5 0 0 273.4010 124.4876 A 4.04 3.47 24.5 0 0 278.5162 123.0054"/>
    <path stroke="#18b064" vector-effect="non-scaling-stroke" d=" M 267.62 119.73 C 264.12 119.95 258.08 123.19 263.87 126.69 A 1.01 0.96 -78.2 0 1 264.33 127.44 Q 264.59 130.21 268.72 129.09 Q 271.13 128.43 270.79 125.97 Q 270.50 123.80 268.48 120.20 A 0.91 0.91 73.6 0 0 267.62 119.73"/>
    <path stroke="#c0de5c" vector-effect="non-scaling-stroke" d=" M 379.7121 85.5789 A 3.19 0.46 -18.1 0 0 376.5371 86.1328 A 3.19 0.46 -18.1 0 0 373.6479 87.5611 A 3.19 0.46 -18.1 0 0 376.8229 87.0072 A 3.19 0.46 -18.1 0 0 379.7121 85.5789"/>
    <path stroke="#157c46" vector-effect="non-scaling-stroke" d=" M 246.4733 78.7187 A 2.16 1.80 59.9 0 0 246.9473 75.9473 A 2.16 1.80 59.9 0 0 244.3067 74.9813 A 2.16 1.80 59.9 0 0 243.8327 77.7527 A 2.16 1.80 59.9 0 0 246.4733 78.7187"/>
    <path stroke="#6ec155" vector-effect="non-scaling-stroke" d=" M 321.58 107.81 C 321.58 106.09 318.72 102.38 322.35 102.07 A 0.44 0.40 74.2 0 1 322.77 102.33 L 324.82 106.62 Q 325.07 107.16 325.47 106.54 Q 327.17 103.89 324.07 101.41 A 2.63 1.91 48.8 0 0 321.74 100.88 L 317.41 102.70 A 0.45 0.39 56.8 0 0 317.32 103.37 Q 319.66 106.11 319.69 107.56 Q 319.73 110.42 321.25 108.70 A 1.37 1.34 65.9 0 0 321.58 107.81"/>
    <path stroke="#c0de5b" vector-effect="non-scaling-stroke" d=" M 153.3117 108.0385 A 0.26 0.26 0.0 0 0 152.9827 107.8745 L 84.6654 130.7331 A 0.26 0.26 0.0 0 0 84.5014 131.0621 L 84.6283 131.4415 A 0.26 0.26 0.0 0 0 84.9573 131.6055 L 153.2746 108.7469 A 0.26 0.26 0.0 0 0 153.4386 108.4179 L 153.3117 108.0385"/>
    <path stroke="#c0de5b" vector-effect="non-scaling-stroke" d=" M 191.9742 148.2725 A 0.34 0.34 0.0 0 0 191.5435 148.0587 L 119.1529 172.4208 A 0.34 0.34 0.0 0 0 118.9391 172.8515 L 119.0858 173.2875 A 0.34 0.34 0.0 0 0 119.5165 173.5013 L 191.9071 149.1392 A 0.34 0.34 0.0 0 0 192.1209 148.7085 L 191.9742 148.2725"/>
    <path stroke="#147d46" vector-effect="non-scaling-stroke" d=" M 238.1508 82.2434 A 2.47 2.10 54.6 0 0 238.4318 79.0135 A 2.47 2.10 54.6 0 0 235.2892 78.2166 A 2.47 2.10 54.6 0 0 235.0082 81.4465 A 2.47 2.10 54.6 0 0 238.1508 82.2434"/>
    <path stroke="#18b064" vector-effect="non-scaling-stroke" d=" M 276.6166 123.0227 A 2.67 1.87 41.6 0 0 275.8615 119.8516 A 2.67 1.87 41.6 0 0 272.6234 119.4773 A 2.67 1.87 41.6 0 0 273.3785 122.6484 A 2.67 1.87 41.6 0 0 276.6166 123.0227"/>
    <path stroke="#18b064" vector-effect="non-scaling-stroke" d=" M 266.58 126.41 L 265.95 127.45 A 0.44 0.37 18.9 0 0 266.30 128.03 Q 270.14 128.69 268.82 125.48 C 267.90 123.24 267.75 120.73 264.31 121.81 Q 261.89 122.58 264.31 124.69 Q 265.27 125.52 266.46 125.92 A 0.35 0.29 -63.5 0 1 266.58 126.41"/>
    <path stroke="#81b89b" vector-effect="non-scaling-stroke" d=" M 194.83 225.69 Q 192.28 224.70 190.17 224.98 A 1.31 1.24 -4.5 0 0 189.04 226.23 L 189.15 235.56 A 0.60 0.57 2.9 0 0 189.68 236.12 Q 198.57 237.01 196.98 228.31 Q 196.63 226.40 194.83 225.69"/>
    <path stroke="#81b89b" vector-effect="non-scaling-stroke" d=" M 198.66 249.64 C 201.15 242.97 195.77 239.27 189.68 240.34 A 0.63 0.61 -5.1 0 0 189.16 240.94 L 189.03 251.76 A 1.29 1.24 2.7 0 0 190.23 253.02 C 193.26 253.24 197.38 253.08 198.66 249.64"/>
    <path stroke="#248453" vector-effect="non-scaling-stroke" d=" M 204.3179 250.7994 A 0.26 0.26 0.0 0 0 203.9874 250.6382 L 191.0149 255.1050 A 0.26 0.26 0.0 0 0 190.8537 255.4355 L 191.0621 256.0406 A 0.26 0.26 0.0 0 0 191.3926 256.2018 L 204.3651 251.7350 A 0.26 0.26 0.0 0 0 204.5263 251.4045 L 204.3179 250.7994"/>
    <path stroke="#81b89b" vector-effect="non-scaling-stroke" d=" M 221.44 237.45 Q 221.42 239.71 221.15 240.95 C 220.46 244.11 228.89 242.69 230.19 238.69 C 232.04 232.99 231.05 222.80 222.04 225.18 A 0.68 0.64 -7.5 0 0 221.53 225.81 L 221.44 237.45"/>
    <path stroke="#248453" vector-effect="non-scaling-stroke" d=" M 235.5196 240.2658 A 0.27 0.27 0.0 0 0 235.1749 240.1014 L 223.1845 244.3474 A 0.27 0.27 0.0 0 0 223.0201 244.6921 L 223.2404 245.3142 A 0.27 0.27 0.0 0 0 223.5851 245.4786 L 235.5755 241.2326 A 0.27 0.27 0.0 0 0 235.7399 240.8879 L 235.5196 240.2658"/>
    <path stroke="#409a6c" vector-effect="non-scaling-stroke" d=" M 251.4759 235.2648 A 2.44 0.51 -16.8 0 0 248.9926 235.4818 A 2.44 0.51 -16.8 0 0 246.8041 236.6752 A 2.44 0.51 -16.8 0 0 249.2874 236.4582 A 2.44 0.51 -16.8 0 0 251.4759 235.2648"/>
  </g>
  <path fill="#ffffff" d=" M 0.00 0.00 L 416.00 0.00 L 416.00 271.00 L 0.00 271.00 L 0.00 0.00 Z M 184.54 19.87 A 24.51 17.35 0.0 0 0 160.03 2.52 A 24.51 17.35 0.0 0 0 135.52 19.87 A 24.51 17.35 0.0 0 0 160.03 37.22 A 24.51 17.35 0.0 0 0 184.54 19.87 Z M 241.69 28.31 C 236.94 34.62 241.54 42.72 247.81 45.69 C 257.20 50.14 276.49 49.67 279.57 36.84 C 281.88 27.22 271.91 20.98 263.79 20.50 Q 250.40 18.03 241.69 28.31 Z M 165.25 49.71 Q 159.19 51.85 153.56 55.18 C 136.87 61.02 93.61 81.02 93.01 101.75 Q 92.99 102.25 93.41 101.97 C 121.16 82.86 154.58 72.03 188.49 65.57 A 2.17 2.16 65.7 0 1 190.59 66.37 C 213.47 95.87 222.01 137.11 191.62 165.11 C 185.93 170.36 180.06 175.00 173.31 178.56 Q 171.51 179.52 173.50 179.25 C 178.22 178.62 182.06 178.89 186.81 176.81 C 225.57 159.90 262.74 125.65 250.75 78.71 L 249.04 72.75 C 242.50 53.38 227.12 36.19 211.45 22.79 A 1.06 1.06 -48.5 0 0 209.96 22.90 C 206.44 26.95 203.09 30.39 198.35 33.21 Q 182.43 42.68 165.25 49.71 Z M 331.75 52.04 C 350.14 59.80 372.73 71.05 364.81 95.90 C 356.03 123.48 313.06 145.54 288.95 155.22 C 234.80 176.97 173.12 188.20 115.18 182.32 C 98.37 180.62 79.81 176.56 65.08 168.00 C 56.14 162.81 46.10 151.04 47.50 140.00 C 50.36 117.53 73.95 99.22 92.73 89.05 C 93.09 88.86 94.30 87.36 92.61 88.29 Q 72.97 99.08 56.59 114.34 C 41.88 128.04 28.69 150.20 46.14 168.37 C 57.22 179.90 73.12 185.81 88.41 189.19 C 111.70 194.35 134.68 195.53 159.50 194.24 Q 228.74 190.65 293.25 165.50 C 322.77 153.99 369.62 131.20 380.50 100.00 C 391.16 69.42 353.35 53.03 330.50 49.29 Q 329.13 48.67 325.44 46.56 C 317.83 42.23 312.17 46.01 303.99 45.08 Q 293.03 43.85 279.43 43.39 A 1.90 1.88 -70.2 0 0 277.84 44.15 Q 277.18 45.05 279.26 44.96 Q 292.16 44.45 304.94 46.24 Q 305.43 46.31 305.04 46.62 Q 301.08 49.77 300.06 51.56 C 296.84 57.21 300.85 63.62 306.26 65.98 C 316.19 70.33 336.22 67.15 331.75 52.04 Z M 251.35 59.30 C 277.04 106.73 247.02 153.12 205.04 174.69 Q 203.17 175.65 205.23 175.25 Q 219.67 172.47 233.95 169.04 Q 244.85 166.43 256.81 158.81 C 287.89 139.02 306.98 108.49 298.10 70.77 Q 295.22 58.55 289.83 47.60 A 0.91 0.91 -27.6 0 0 288.57 47.21 C 276.85 53.79 264.96 56.31 251.82 58.36 A 0.64 0.64 -18.5 0 0 251.35 59.30 Z M 306.97 77.01 C 311.65 110.86 294.93 140.27 267.49 159.01 Q 266.37 159.77 267.65 159.32 Q 281.99 154.24 296.24 147.97 Q 299.66 146.46 301.06 145.31 C 322.16 128.07 334.98 101.79 334.25 74.41 A 0.98 0.97 -7.6 0 0 333.04 73.49 Q 320.69 76.55 307.41 76.50 A 0.45 0.44 86.1 0 0 306.97 77.01 Z M 191.85 95.54 C 191.48 96.23 172.74 102.01 167.00 104.00 Q 164.68 104.80 162.99 104.59 A 1.38 1.13 26.9 0 0 162.08 104.79 C 158.03 107.57 155.66 110.96 152.64 114.46 C 137.09 132.52 121.98 154.39 116.30 177.70 A 1.22 1.22 -81.1 0 0 117.39 179.20 Q 133.42 180.45 148.92 180.50 C 152.43 180.51 155.13 180.63 158.31 179.06 C 171.51 172.57 185.62 162.40 193.21 149.99 C 208.30 125.32 198.09 96.51 181.90 74.97 A 1.11 1.10 -24.9 0 0 180.77 74.56 C 147.53 82.06 80.75 103.93 78.75 146.75 Q 78.12 160.26 81.77 170.85 A 1.10 1.03 1.9 0 0 82.41 171.49 Q 91.93 175.10 101.77 176.71 A 0.85 0.83 -73.7 0 0 102.68 176.20 C 114.03 149.01 134.97 128.08 156.06 108.31 Q 159.06 105.50 161.81 103.99 A 1.19 1.05 37.0 0 1 162.71 103.92 C 163.75 104.25 164.09 104.39 165.22 104.00 Q 178.29 99.45 191.46 95.21 Q 192.16 94.99 191.85 95.54 Z M 200.22 237.66 C 203.33 235.50 205.26 232.39 204.61 228.49 C 203.05 219.08 189.18 220.15 182.50 221.75 A 0.66 0.65 83.3 0 0 182.00 222.39 L 182.00 255.75 A 0.78 0.77 2.4 0 0 182.71 256.52 C 188.86 257.05 202.75 258.87 205.44 251.69 Q 208.98 242.21 200.28 238.15 Q 199.83 237.94 200.22 237.66 Z M 221.25 246.29 L 222.25 246.21 C 228.69 246.30 234.51 247.14 237.01 239.58 C 239.24 232.86 238.27 222.91 229.75 221.25 Q 222.81 219.90 214.80 221.70 A 0.63 0.62 -6.4 0 0 214.31 222.31 L 214.25 255.84 A 0.91 0.91 0.0 0 0 215.16 256.75 L 220.82 256.75 A 0.52 0.50 90.0 0 0 221.32 256.23 L 221.25 246.29 Z M 161.88 237.48 L 156.18 221.79 A 0.80 0.75 79.5 0 0 155.46 221.26 L 149.23 221.30 A 0.55 0.54 78.8 0 0 148.73 222.06 Q 152.73 231.86 156.59 241.29 C 158.73 246.53 158.77 250.50 158.58 255.93 A 0.59 0.48 -88.4 0 0 159.05 256.54 L 164.77 256.63 A 0.88 0.79 88.3 0 0 165.57 255.68 C 165.19 250.47 165.27 247.05 167.33 242.04 Q 171.45 232.05 175.32 221.96 A 0.39 0.35 -78.2 0 0 175.01 221.43 L 168.67 221.37 A 0.82 0.62 -77.1 0 0 168.03 221.91 L 162.26 237.48 Q 162.07 237.99 161.88 237.48 Z M 252.57 236.18 L 252.70 225.77 A 0.53 0.52 0.0 0 1 253.23 225.25 C 255.54 225.25 264.45 225.87 265.95 225.21 Q 267.07 224.71 266.48 222.01 A 0.98 0.96 83.6 0 0 265.54 221.24 L 246.18 221.42 A 0.52 0.50 89.4 0 0 245.69 221.94 L 245.81 256.18 A 0.54 0.48 89.5 0 0 246.30 256.72 L 252.06 256.62 A 0.56 0.53 89.5 0 0 252.58 256.06 L 252.74 241.57 A 0.57 0.56 -90.0 0 1 253.30 241.00 L 263.91 241.00 A 0.72 0.71 -79.0 0 0 264.57 240.55 Q 265.27 238.79 264.31 237.39 A 1.07 0.81 -12.3 0 0 263.51 237.02 L 253.05 236.73 A 0.54 0.49 -88.9 0 1 252.57 236.18 Z"/>
  <ellipse fill="#007236" cx="160.03" cy="19.87" rx="24.51" ry="17.35"/>
  <path fill="#16a761" d=" M 263.79 20.50 L 262.82 22.11 A 1.30 0.82 2.0 0 1 262.00 22.59 Q 251.58 24.51 241.69 28.31 Q 250.40 18.03 263.79 20.50 Z"/>
  <path fill="#00a551" d=" M 263.79 20.50 C 271.91 20.98 281.88 27.22 279.57 36.84 C 276.49 49.67 257.20 50.14 247.81 45.69 C 241.54 42.72 236.94 34.62 241.69 28.31 Q 251.58 24.51 262.00 22.59 A 1.30 0.82 2.0 0 0 262.82 22.11 L 263.79 20.50 Z"/>
  <path fill="#007236" d=" M 249.04 72.75 Q 246.52 73.27 244.05 73.94 Q 240.37 74.94 241.57 78.53 A 1.13 0.81 5.6 0 0 242.23 79.11 Q 243.47 79.54 243.91 81.46 Q 244.35 83.30 246.14 83.26 L 249.19 83.21 A 0.68 0.67 6.8 0 0 249.83 82.71 C 250.15 81.57 249.45 78.73 250.75 78.71 C 262.74 125.65 225.57 159.90 186.81 176.81 C 182.06 178.89 178.22 178.62 173.50 179.25 Q 171.51 179.52 173.31 178.56 C 180.06 175.00 185.93 170.36 191.62 165.11 C 222.01 137.11 213.47 95.87 190.59 66.37 A 2.17 2.16 65.7 0 0 188.49 65.57 C 154.58 72.03 121.16 82.86 93.41 101.97 Q 92.99 102.25 93.01 101.75 C 93.61 81.02 136.87 61.02 153.56 55.18 Q 166.59 51.49 179.30 46.83 C 180.02 46.57 181.66 44.87 178.97 45.67 Q 172.59 47.56 166.42 50.08 A 0.85 0.75 -35.2 0 1 165.61 49.99 L 165.25 49.71 Q 182.43 42.68 198.35 33.21 C 203.09 30.39 206.44 26.95 209.96 22.90 A 1.06 1.06 -47.4 0 1 211.45 22.79 C 227.12 36.19 242.50 53.38 249.04 72.75 Z M 213.31 31.06 C 209.53 35.57 216.55 39.57 219.91 34.85 A 0.91 0.88 51.0 0 0 219.99 33.97 Q 218.90 31.67 216.75 30.25 Q 214.98 29.08 213.31 31.06 Z M 206.34 38.49 C 205.81 37.40 203.91 32.56 203.16 32.13 C 200.90 30.83 205.23 39.28 205.31 39.43 A 1.15 1.14 74.7 0 0 206.37 40.04 Q 209.73 39.89 211.69 38.44 C 212.28 38.01 212.42 37.54 211.61 37.90 Q 209.42 38.88 207.07 38.94 A 0.81 0.79 75.8 0 1 206.34 38.49 Z M 240.6362 79.9551 A 4.01 3.60 -2.5 0 0 236.4730 76.5334 A 4.01 3.60 -2.5 0 0 232.6238 80.3049 A 4.01 3.60 -2.5 0 0 236.7870 83.7266 A 4.01 3.60 -2.5 0 0 240.6362 79.9551 Z M 227.29 85.01 C 226.69 84.08 223.95 77.70 222.87 78.42 A 0.68 0.59 62.6 0 0 222.68 79.21 L 225.98 86.80 A 0.70 0.69 -19.6 0 0 226.80 87.18 L 232.52 85.64 A 1.56 1.14 2.9 0 0 233.31 85.12 C 234.58 83.23 228.22 85.29 228.04 85.33 A 0.72 0.69 67.2 0 1 227.29 85.01 Z M 221.0351 138.6717 A 0.27 0.27 0.0 0 0 220.6928 138.5025 L 208.6443 142.5807 A 0.27 0.27 0.0 0 0 208.4751 142.9231 L 208.5649 143.1883 A 0.27 0.27 0.0 0 0 208.9072 143.3575 L 220.9557 139.2793 A 0.27 0.27 0.0 0 0 221.1249 138.9369 L 221.0351 138.6717 Z"/>
  <path d=" M 219.91 34.85 C 216.55 39.57 209.53 35.57 213.31 31.06 Q 214.98 29.08 216.75 30.25 Q 218.90 31.67 219.99 33.97 A 0.91 0.88 51.0 0 1 219.91 34.85 Z M 217.9013 35.5665 A 2.65 2.25 50.9 0 0 217.9761 32.0910 A 2.65 2.25 50.9 0 0 214.5587 31.4535 A 2.65 2.25 50.9 0 0 214.4839 34.9290 A 2.65 2.25 50.9 0 0 217.9013 35.5665 Z" style="fill: rgb(0, 114, 54);"/>
  <ellipse fill="#027036" cx="0.00" cy="0.00" transform="matrix(0.630676, 0.776046, -0.776046, 0.630676, 216.230008, 33.509998)" rx="2.65" ry="2.25"/>
  <path d=" M 207.07 38.94 Q 209.42 38.88 211.61 37.90 C 212.42 37.54 212.28 38.01 211.69 38.44 Q 209.73 39.89 206.37 40.04 A 1.15 1.14 74.7 0 1 205.31 39.43 C 205.23 39.28 200.90 30.83 203.16 32.13 C 203.91 32.56 205.81 37.40 206.34 38.49 A 0.81 0.79 75.8 0 0 207.07 38.94 Z" style="fill: rgb(0, 114, 54);"/>
  <path fill="#61ba47" d=" M 330.50 49.29 Q 330.43 50.94 331.75 52.04 C 336.22 67.15 316.19 70.33 306.26 65.98 C 300.85 63.62 296.84 57.21 300.06 51.56 Q 301.08 49.77 305.04 46.62 Q 305.43 46.31 304.94 46.24 Q 292.16 44.45 279.26 44.96 Q 277.18 45.05 277.84 44.15 A 1.90 1.88 -70.2 0 1 279.43 43.39 Q 293.03 43.85 303.99 45.08 C 312.17 46.01 317.83 42.23 325.44 46.56 Q 329.13 48.67 330.50 49.29 Z"/>
  <path d=" M 153.56 55.18 Q 159.19 51.85 165.25 49.71 L 165.61 49.99 A 0.85 0.75 -35.2 0 0 166.42 50.08 Q 172.59 47.56 178.97 45.67 C 181.66 44.87 180.02 46.57 179.30 46.83 Q 166.59 51.49 153.56 55.18 Z" style="fill: rgb(0, 114, 54);"/>
  <path fill="#00a551" d=" M 205.04 174.69 C 247.02 153.12 277.04 106.73 251.35 59.30 A 0.64 0.64 -18.5 0 1 251.82 58.36 C 264.96 56.31 276.85 53.79 288.57 47.21 A 0.91 0.91 -27.6 0 1 289.83 47.60 Q 295.22 58.55 298.10 70.77 C 306.98 108.49 287.89 139.02 256.81 158.81 Q 244.85 166.43 233.95 169.04 Q 219.67 172.47 205.23 175.25 Q 203.17 175.65 205.04 174.69 Z M 263.60 66.79 A 0.97 0.97 75.6 0 1 262.86 68.05 C 255.30 69.42 259.82 77.97 266.70 73.88 A 1.41 1.41 65.5 0 0 267.32 72.21 Q 266.43 69.63 265.38 66.61 C 265.01 65.54 262.22 62.70 263.60 66.79 Z M 276.22 70.01 Q 276.52 68.49 275.30 69.44 C 269.39 73.99 269.48 64.95 272.35 66.00 A 1.64 1.16 75.7 0 1 273.07 66.61 Q 274.60 68.99 275.39 65.99 A 0.61 0.60 -71.8 0 0 275.04 65.29 Q 272.06 64.01 269.36 65.66 A 1.02 0.97 77.4 0 0 268.89 66.44 Q 268.25 73.59 274.93 71.16 Q 276.08 70.74 276.22 70.01 Z M 282.48 114.80 C 275.21 115.96 281.75 126.04 287.67 119.87 A 0.83 0.81 57.3 0 0 287.84 119.03 C 287.79 118.89 283.14 106.22 283.33 113.77 A 1.01 1.01 -5.5 0 1 282.48 114.80 Z M 278.5162 123.0054 A 4.04 3.47 24.5 0 0 276.2790 118.1724 A 4.04 3.47 24.5 0 0 271.1638 119.6546 A 4.04 3.47 24.5 0 0 273.4010 124.4876 A 4.04 3.47 24.5 0 0 278.5162 123.0054 Z M 267.62 119.73 C 264.12 119.95 258.08 123.19 263.87 126.69 A 1.01 0.96 -78.2 0 1 264.33 127.44 Q 264.59 130.21 268.72 129.09 Q 271.13 128.43 270.79 125.97 Q 270.50 123.80 268.48 120.20 A 0.91 0.91 73.6 0 0 267.62 119.73 Z"/>
  <path fill="#b3d238" d=" M 330.50 49.29 C 353.35 53.03 391.16 69.42 380.50 100.00 C 369.62 131.20 322.77 153.99 293.25 165.50 Q 228.74 190.65 159.50 194.24 C 134.68 195.53 111.70 194.35 88.41 189.19 C 73.12 185.81 57.22 179.90 46.14 168.37 C 28.69 150.20 41.88 128.04 56.59 114.34 Q 72.97 99.08 92.61 88.29 C 94.30 87.36 93.09 88.86 92.73 89.05 C 73.95 99.22 50.36 117.53 47.50 140.00 C 46.10 151.04 56.14 162.81 65.08 168.00 C 79.81 176.56 98.37 180.62 115.18 182.32 C 173.12 188.20 234.80 176.97 288.95 155.22 C 313.06 145.54 356.03 123.48 364.81 95.90 C 372.73 71.05 350.14 59.80 331.75 52.04 Q 330.43 50.94 330.50 49.29 Z M 379.7121 85.5789 A 3.19 0.46 -18.1 0 0 376.5371 86.1328 A 3.19 0.46 -18.1 0 0 373.6479 87.5611 A 3.19 0.46 -18.1 0 0 376.8229 87.0072 A 3.19 0.46 -18.1 0 0 379.7121 85.5789 Z"/>
  <path fill="#00a551" d=" M 263.60 66.79 C 262.22 62.70 265.01 65.54 265.38 66.61 Q 266.43 69.63 267.32 72.21 A 1.41 1.41 65.5 0 1 266.70 73.88 C 259.82 77.97 255.30 69.42 262.86 68.05 A 0.97 0.97 75.6 0 0 263.60 66.79 Z"/>
  <path d=" M 276.22 70.01 Q 276.08 70.74 274.93 71.16 Q 268.25 73.59 268.89 66.44 A 1.02 0.97 77.4 0 1 269.36 65.66 Q 272.06 64.01 275.04 65.29 A 0.61 0.60 -71.8 0 1 275.39 65.99 Q 274.60 68.99 273.07 66.61 A 1.64 1.16 75.7 0 0 272.35 66.00 C 269.48 64.95 269.39 73.99 275.30 69.44 Q 276.52 68.49 276.22 70.01 Z" style="fill: rgb(0, 165, 81);"/>
  <path d=" M 249.04 72.75 L 250.75 78.71 C 249.45 78.73 250.15 81.57 249.83 82.71 A 0.68 0.67 6.8 0 1 249.19 83.21 L 246.14 83.26 Q 244.35 83.30 243.91 81.46 Q 243.47 79.54 242.23 79.11 A 1.13 0.81 5.6 0 1 241.57 78.53 Q 240.37 74.94 244.05 73.94 Q 246.52 73.27 249.04 72.75 Z M 246.4733 78.7187 A 2.16 1.80 59.9 0 0 246.9473 75.9473 A 2.16 1.80 59.9 0 0 244.3067 74.9813 A 2.16 1.80 59.9 0 0 243.8327 77.7527 A 2.16 1.80 59.9 0 0 246.4733 78.7187 Z" style="fill: rgb(0, 114, 54);"/>
  <path fill="#61ba47" d=" M 267.49 159.01 C 294.93 140.27 311.65 110.86 306.97 77.01 A 0.45 0.44 86.1 0 1 307.41 76.50 Q 320.69 76.55 333.04 73.49 A 0.98 0.97 -7.6 0 1 334.25 74.41 C 334.98 101.79 322.16 128.07 301.06 145.31 Q 299.66 146.46 296.24 147.97 Q 281.99 154.24 267.65 159.32 Q 266.37 159.77 267.49 159.01 Z M 321.58 107.81 C 321.58 106.09 318.72 102.38 322.35 102.07 A 0.44 0.40 74.2 0 1 322.77 102.33 L 324.82 106.62 Q 325.07 107.16 325.47 106.54 Q 327.17 103.89 324.07 101.41 A 2.63 1.91 48.8 0 0 321.74 100.88 L 317.41 102.70 A 0.45 0.39 56.8 0 0 317.32 103.37 Q 319.66 106.11 319.69 107.56 Q 319.73 110.42 321.25 108.70 A 1.37 1.34 65.9 0 0 321.58 107.81 Z"/>
  <path d=" M 191.46 95.21 Q 178.29 99.45 165.22 104.00 C 164.09 104.39 163.75 104.25 162.71 103.92 A 1.19 1.05 37.0 0 0 161.81 103.99 Q 159.06 105.50 156.06 108.31 C 134.97 128.08 114.03 149.01 102.68 176.20 A 0.85 0.83 -73.7 0 1 101.77 176.71 Q 91.93 175.10 82.41 171.49 A 1.10 1.03 1.9 0 1 81.77 170.85 Q 78.12 160.26 78.75 146.75 C 80.75 103.93 147.53 82.06 180.77 74.56 A 1.11 1.10 -24.9 0 1 181.90 74.97 C 198.09 96.51 208.30 125.32 193.21 149.99 C 185.62 162.40 171.51 172.57 158.31 179.06 C 155.13 180.63 152.43 180.51 148.92 180.50 Q 133.42 180.45 117.39 179.20 A 1.22 1.22 -81.1 0 1 116.30 177.70 C 121.98 154.39 137.09 132.52 152.64 114.46 C 155.66 110.96 158.03 107.57 162.08 104.79 A 1.38 1.13 26.9 0 1 162.99 104.59 Q 164.68 104.80 167.00 104.00 C 172.74 102.01 191.48 96.23 191.85 95.54 Q 192.16 94.99 191.46 95.21 Z M 153.3117 108.0385 A 0.26 0.26 0.0 0 0 152.9827 107.8745 L 84.6654 130.7331 A 0.26 0.26 0.0 0 0 84.5014 131.0621 L 84.6283 131.4415 A 0.26 0.26 0.0 0 0 84.9573 131.6055 L 153.2746 108.7469 A 0.26 0.26 0.0 0 0 153.4386 108.4179 L 153.3117 108.0385 Z M 191.9742 148.2725 A 0.34 0.34 0.0 0 0 191.5435 148.0587 L 119.1529 172.4208 A 0.34 0.34 0.0 0 0 118.9391 172.8515 L 119.0858 173.2875 A 0.34 0.34 0.0 0 0 119.5165 173.5013 L 191.9071 149.1392 A 0.34 0.34 0.0 0 0 192.1209 148.7085 L 191.9742 148.2725 Z" style="fill: rgb(179, 210, 56);"/>
  <ellipse fill="#027036" cx="0.00" cy="0.00" transform="matrix(0.501511, 0.865151, -0.865151, 0.501511, 245.389994, 76.850001)" rx="2.16" ry="1.80"/>
  <path d=" M 240.6362 79.9551 A 4.01 3.60 -2.5 0 1 236.7870 83.7266 A 4.01 3.60 -2.5 0 1 232.6238 80.3049 A 4.01 3.60 -2.5 0 1 236.4730 76.5334 A 4.01 3.60 -2.5 0 1 240.6362 79.9551 Z M 238.1508 82.2434 A 2.47 2.10 54.6 0 0 238.4318 79.0135 A 2.47 2.10 54.6 0 0 235.2892 78.2166 A 2.47 2.10 54.6 0 0 235.0082 81.4465 A 2.47 2.10 54.6 0 0 238.1508 82.2434 Z" style="fill: rgb(0, 114, 54);"/>
  <ellipse fill="#007236" cx="0.00" cy="0.00" transform="matrix(0.579281, 0.815128, -0.815128, 0.579281, 236.719999, 80.230006)" rx="2.47" ry="2.10"/>
  <path d="M 228.131 85.33 C 228.311 85.29 234.671 83.23 233.401 85.12 C 233.234 85.359 232.953 85.543 232.611 85.64 L 226.891 87.18 C 226.558 87.271 226.21 87.11 226.071 86.8 L 222.771 79.21 C 222.644 78.909 222.724 78.577 222.961 78.42 C 224.041 77.7 226.781 84.08 227.381 85.01 C 227.544 85.268 227.845 85.396 228.131 85.33 Z" style="fill: rgb(0, 114, 54);"/>
  <ellipse cx="0.00" cy="0.00" transform="matrix(0.950516, -0.310676, 0.310676, 0.950516, 376.679986, 86.570003)" rx="3.19" ry="0.46" style="fill: rgb(179, 210, 56);"/>
  <path d=" M 321.25 108.70 Q 319.73 110.42 319.69 107.56 Q 319.66 106.11 317.32 103.37 A 0.45 0.39 56.8 0 1 317.41 102.70 L 321.74 100.88 A 2.63 1.91 48.8 0 1 324.07 101.41 Q 327.17 103.89 325.47 106.54 Q 325.07 107.16 324.82 106.62 L 322.77 102.33 A 0.44 0.40 74.2 0 0 322.35 102.07 C 318.72 102.38 321.58 106.09 321.58 107.81 A 1.37 1.34 65.9 0 1 321.25 108.70 Z" style="fill: rgb(97, 186, 71);"/>
  <rect x="-36.28" y="-0.46" transform="matrix(0.948324, -0.317305, 0.317305, 0.948324, 118.969997, 119.740004)" width="72.56" height="0.92" rx="0.26" style="fill: rgb(179, 210, 56);"/>
  <path fill="#00a551" d=" M 282.48 114.80 A 1.01 1.01 -5.5 0 0 283.33 113.77 C 283.14 106.22 287.79 118.89 287.84 119.03 A 0.83 0.81 57.3 0 1 287.67 119.87 C 281.75 126.04 275.21 115.96 282.48 114.80 Z"/>
  <path d=" M 278.5162 123.0054 A 4.04 3.47 24.5 0 1 273.4010 124.4876 A 4.04 3.47 24.5 0 1 271.1638 119.6546 A 4.04 3.47 24.5 0 1 276.2790 118.1724 A 4.04 3.47 24.5 0 1 278.5162 123.0054 Z M 276.6166 123.0227 A 2.67 1.87 41.6 0 0 275.8615 119.8516 A 2.67 1.87 41.6 0 0 272.6234 119.4773 A 2.67 1.87 41.6 0 0 273.3785 122.6484 A 2.67 1.87 41.6 0 0 276.6166 123.0227 Z" style="fill: rgb(0, 165, 81);"/>
  <ellipse fill="#00a551" cx="0.00" cy="0.00" transform="matrix(0.747798, 0.663926, -0.663926, 0.747798, 274.619999, 121.250002)" rx="2.67" ry="1.87"/>
  <path d=" M 263.87 126.69 C 258.08 123.19 264.12 119.95 267.62 119.73 A 0.91 0.91 73.6 0 1 268.48 120.20 Q 270.50 123.80 270.79 125.97 Q 271.13 128.43 268.72 129.09 Q 264.59 130.21 264.33 127.44 A 1.01 0.96 -78.2 0 0 263.87 126.69 Z M 266.58 126.41 L 265.95 127.45 A 0.44 0.37 18.9 0 0 266.30 128.03 Q 270.14 128.69 268.82 125.48 C 267.90 123.24 267.75 120.73 264.31 121.81 Q 261.89 122.58 264.31 124.69 Q 265.27 125.52 266.46 125.92 A 0.35 0.29 -63.5 0 1 266.58 126.41 Z" style="fill: rgb(0, 165, 81);"/>
  <path d=" M 266.46 125.92 Q 265.27 125.52 264.31 124.69 Q 261.89 122.58 264.31 121.81 C 267.75 120.73 267.90 123.24 268.82 125.48 Q 270.14 128.69 266.30 128.03 A 0.44 0.37 18.9 0 1 265.95 127.45 L 266.58 126.41 A 0.35 0.29 -63.5 0 0 266.46 125.92 Z" style="fill: rgb(0, 165, 81);"/>
  <rect x="-6.63" y="-0.41" transform="matrix(0.94721, -0.320613, 0.320613, 0.94721, 214.800003, 140.929995)" width="13.26" height="0.82" rx="0.27" style="fill: rgb(0, 114, 54);"/>
  <rect x="-38.53" y="-0.57" transform="matrix(0.947768, -0.318959, 0.318959, 0.947768, 155.530007, 160.780007)" width="77.06" height="1.14" rx="0.34" style="fill: rgb(179, 210, 56);"/>
  <path fill="#027036" d=" M 200.28 238.15 Q 208.98 242.21 205.44 251.69 C 202.75 258.87 188.86 257.05 182.71 256.52 A 0.78 0.77 2.4 0 1 182.00 255.75 L 182.00 222.39 A 0.66 0.65 83.3 0 1 182.50 221.75 C 189.18 220.15 203.05 219.08 204.61 228.49 C 205.26 232.39 203.33 235.50 200.22 237.66 Q 199.83 237.94 200.28 238.15 Z M 194.83 225.69 Q 192.28 224.70 190.17 224.98 A 1.31 1.24 -4.5 0 0 189.04 226.23 L 189.15 235.56 A 0.60 0.57 2.9 0 0 189.68 236.12 Q 198.57 237.01 196.98 228.31 Q 196.63 226.40 194.83 225.69 Z M 198.66 249.64 C 201.15 242.97 195.77 239.27 189.68 240.34 A 0.63 0.61 -5.1 0 0 189.16 240.94 L 189.03 251.76 A 1.29 1.24 2.7 0 0 190.23 253.02 C 193.26 253.24 197.38 253.08 198.66 249.64 Z M 204.3179 250.7994 A 0.26 0.26 0.0 0 0 203.9874 250.6382 L 191.0149 255.1050 A 0.26 0.26 0.0 0 0 190.8537 255.4355 L 191.0621 256.0406 A 0.26 0.26 0.0 0 0 191.3926 256.2018 L 204.3651 251.7350 A 0.26 0.26 0.0 0 0 204.5263 251.4045 L 204.3179 250.7994 Z"/>
  <path fill="#027036" d=" M 222.25 246.21 Q 220.49 244.48 218.41 245.73 Q 218.01 245.96 217.49 246.00 Q 216.02 246.10 215.57 247.42 Q 215.56 247.46 215.59 247.45 Q 220.63 245.80 221.25 246.29 L 221.32 256.23 A 0.52 0.50 -90.0 0 1 220.82 256.75 L 215.16 256.75 A 0.91 0.91 0.0 0 1 214.25 255.84 L 214.31 222.31 A 0.63 0.62 -6.4 0 1 214.80 221.70 Q 222.81 219.90 229.75 221.25 C 238.27 222.91 239.24 232.86 237.01 239.58 C 234.51 247.14 228.69 246.30 222.25 246.21 Z M 221.44 237.45 Q 221.42 239.71 221.15 240.95 C 220.46 244.11 228.89 242.69 230.19 238.69 C 232.04 232.99 231.05 222.80 222.04 225.18 A 0.68 0.64 -7.5 0 0 221.53 225.81 L 221.44 237.45 Z M 235.5196 240.2658 A 0.27 0.27 0.0 0 0 235.1749 240.1014 L 223.1845 244.3474 A 0.27 0.27 0.0 0 0 223.0201 244.6921 L 223.2404 245.3142 A 0.27 0.27 0.0 0 0 223.5851 245.4786 L 235.5755 241.2326 A 0.27 0.27 0.0 0 0 235.7399 240.8879 L 235.5196 240.2658 Z"/>
  <path fill="#027036" d=" M 162.26 237.48 L 168.03 221.91 A 0.82 0.62 -77.1 0 1 168.67 221.37 L 175.01 221.43 A 0.39 0.35 -78.2 0 1 175.32 221.96 Q 171.45 232.05 167.33 242.04 C 165.27 247.05 165.19 250.47 165.57 255.68 A 0.88 0.79 88.3 0 1 164.77 256.63 L 159.05 256.54 A 0.59 0.48 -88.4 0 1 158.58 255.93 C 158.77 250.50 158.73 246.53 156.59 241.29 Q 152.73 231.86 148.73 222.06 A 0.55 0.54 78.8 0 1 149.23 221.30 L 155.46 221.26 A 0.80 0.75 79.5 0 1 156.18 221.79 L 161.88 237.48 Q 162.07 237.99 162.26 237.48 Z"/>
  <path fill="#027036" d=" M 253.05 236.73 L 263.51 237.02 A 1.07 0.81 -12.3 0 1 264.31 237.39 Q 265.27 238.79 264.57 240.55 A 0.72 0.71 -79.0 0 1 263.91 241.00 L 253.30 241.00 A 0.57 0.56 90.0 0 0 252.74 241.57 L 252.58 256.06 A 0.56 0.53 89.5 0 1 252.06 256.62 L 246.30 256.72 A 0.54 0.48 89.5 0 1 245.81 256.18 L 245.69 221.94 A 0.52 0.50 89.4 0 1 246.18 221.42 L 265.54 221.24 A 0.98 0.96 83.6 0 1 266.48 222.01 Q 267.07 224.71 265.95 225.21 C 264.45 225.87 255.54 225.25 253.23 225.25 A 0.53 0.52 0.0 0 0 252.70 225.77 L 252.57 236.18 A 0.54 0.49 -88.9 0 0 253.05 236.73 Z M 251.4759 235.2648 A 2.44 0.51 -16.8 0 0 248.9926 235.4818 A 2.44 0.51 -16.8 0 0 246.8041 236.6752 A 2.44 0.51 -16.8 0 0 249.2874 236.4582 A 2.44 0.51 -16.8 0 0 251.4759 235.2648 Z"/>
  <path fill="#ffffff" d=" M 194.83 225.69 Q 196.63 226.40 196.98 228.31 Q 198.57 237.01 189.68 236.12 A 0.60 0.57 2.9 0 1 189.15 235.56 L 189.04 226.23 A 1.31 1.24 -4.5 0 1 190.17 224.98 Q 192.28 224.70 194.83 225.69 Z"/>
  <path fill="#ffffff" d=" M 221.44 237.45 L 221.53 225.81 A 0.68 0.64 -7.5 0 1 222.04 225.18 C 231.05 222.80 232.04 232.99 230.19 238.69 C 228.89 242.69 220.46 244.11 221.15 240.95 Q 221.42 239.71 221.44 237.45 Z"/>
  <ellipse cx="0.00" cy="0.00" transform="matrix(0.95732, -0.289032, 0.289032, 0.95732, 249.139994, 235.969999)" rx="2.44" ry="0.51" style="fill: rgb(2, 112, 54);"/>
  <rect x="-6.63" y="-0.60" transform="matrix(0.942641, -0.333807, 0.333807, 0.942641, 229.380008, 242.789994)" width="13.26" height="1.20" rx="0.27" style="fill: rgb(2, 112, 54);"/>
  <path fill="#ffffff" d=" M 189.68 240.34 C 195.77 239.27 201.15 242.97 198.66 249.64 C 197.38 253.08 193.26 253.24 190.23 253.02 A 1.29 1.24 2.7 0 1 189.03 251.76 L 189.16 240.94 A 0.63 0.61 -5.1 0 1 189.68 240.34 Z"/>
  <path d=" M 222.25 246.21 L 221.25 246.29 Q 220.63 245.80 215.59 247.45 Q 215.56 247.46 215.57 247.42 Q 216.02 246.10 217.49 246.00 Q 218.01 245.96 218.41 245.73 Q 220.49 244.48 222.25 246.21 Z" style="fill: rgb(2, 112, 54);"/>
  <rect x="-7.12" y="-0.58" transform="matrix(0.945519, -0.325568, 0.325568, 0.945519, 197.690005, 253.419999)" width="14.24" height="1.16" rx="0.26" style="fill: rgb(2, 112, 54);"/>
</svg>